<?xml version="1.0" encoding="utf-8"?>
<!-- Generator: Adobe Illustrator 16.0.0, SVG Export Plug-In . SVG Version: 6.00 Build 0)  -->
<!DOCTYPE svg PUBLIC "-//W3C//DTD SVG 1.1//EN" "http://www.w3.org/Graphics/SVG/1.1/DTD/svg11.dtd">
<svg version="1.1" id="Layer_1" xmlns="http://www.w3.org/2000/svg" xmlns:xlink="http://www.w3.org/1999/xlink" x="0px" y="0px"
	 width="530px" height="400px" viewBox="0 0 530 400" enable-background="new 0 0 530 400" xml:space="preserve">
<rect x="-171" y="-208" display="none" fill="#141414" width="763" height="697"/>
<g>
	<defs>
		<path id="SVGID_1_" d="M439.287,107.879c50.774,94.729,15.14,212.687-79.592,263.463
			c-94.732,50.771-212.688,15.139-263.463-79.596c-50.774-94.73-15.139-212.685,79.593-263.461
			C270.559-22.488,388.514,13.146,439.287,107.879z"/>
	</defs>
	<clipPath id="SVGID_2_">
		<use xlink:href="#SVGID_1_"  overflow="visible"/>
	</clipPath>
	<g clip-path="url(#SVGID_2_)">
		<path fill="#383838" d="M107.614-27.269c-4.848,2.598-6.688,8.69-4.09,13.538l4.556,8.499c2.598,4.848,0.758,10.94-4.09,13.538
			L18.295,54.238c-4.848,2.598-6.688,8.69-4.09,13.538l4.556,8.5c2.598,4.848,8.69,6.688,13.538,4.09l80.945-43.385
			c4.848-2.598,10.94-0.758,13.538,4.09l4.556,8.5c2.598,4.848,0.757,10.94-4.09,13.538l-73.818,39.564
			c-4.848,2.598-6.688,8.69-4.09,13.538l4.556,8.499c2.598,4.848,8.69,6.688,13.538,4.09l94.008-50.384
			c4.848-2.598,10.94-0.758,13.538,4.09l4.556,8.499c2.598,4.848,0.758,10.94-4.09,13.538L65.997,163.203
			c-4.848,2.598-6.688,8.689-4.09,13.538l4.556,8.5c2.598,4.849,8.69,6.688,13.538,4.091l90.444-48.477
			c4.848-2.598,10.94-0.758,13.538,4.09l4.555,8.499c2.598,4.848,0.758,10.939-4.09,13.537l-76.193,40.838
			c-4.848,2.598-6.688,8.689-4.09,13.537l4.557,8.502c2.598,4.848,8.69,6.688,13.538,4.09l51.253-27.472
			c4.848-2.598,10.94-0.758,13.539,4.09l4.556,8.501c2.599,4.848,0.758,10.939-4.089,13.537l-27.504,14.741
			c-4.848,2.598-6.688,8.689-4.09,13.537l4.557,8.502c2.598,4.848,8.69,6.688,13.538,4.09l28.688-15.377
			c4.848-2.598,10.94-0.758,13.539,4.09l4.555,8.497c2.599,4.848,0.758,10.939-4.089,13.538l-67.881,36.385
			c-4.847,2.599-6.688,8.69-4.089,13.538l4.555,8.497c2.599,4.848,8.691,6.688,13.539,4.09l107.071-57.389
			c4.848-2.598,10.939-0.758,13.537,4.09l4.557,8.501c2.598,4.848,0.758,10.939-4.091,13.537l-71.443,38.29
			c-4.848,2.598-6.688,8.689-4.089,13.537l4.557,8.502c2.599,4.848,8.691,6.688,13.538,4.089l38.188-20.469
			c4.848-2.599,10.939-0.759,13.537,4.089l4.557,8.502c2.598,4.848,0.758,10.939-4.09,13.537l-70.257,37.657
			c-4.848,2.598-6.688,8.689-4.089,13.537l4.556,8.501c2.599,4.848,8.691,6.688,13.539,4.09l65.504-35.107
			c4.848-2.598,10.939-0.758,13.538,4.09l4.555,8.499c2.599,4.848,0.759,10.939-4.089,13.537l-65.505,35.108
			c-4.848,2.598-6.688,8.689-4.09,13.537l4.556,8.499c2.598,4.848,8.69,6.688,13.538,4.09l97.57-52.297
			c4.848-2.598,10.939-0.758,13.537,4.09l4.557,8.5c2.598,4.848,0.758,10.939-4.09,13.537l-97.571,52.297
			c-4.848,2.599-6.688,8.69-4.089,13.538l4.556,8.5c2.599,4.848,8.69,6.688,13.538,4.09l97.571-52.297
			c4.848-2.598,10.939-0.758,13.537,4.091l4.557,8.502c2.598,4.848,0.758,10.939-4.09,13.537l-83.321,44.658
			c-4.848,2.598-6.688,8.689-4.089,13.537l4.556,8.497c2.599,4.848,8.69,6.688,13.538,4.09L506.14,499.06
			c4.848-2.598,6.688-8.689,4.09-13.537L211.597-71.655c-2.598-4.848-8.69-6.688-13.538-4.09L107.614-27.269z"/>
	</g>
	<g display="none" clip-path="url(#SVGID_2_)">
		<path display="inline" fill="#8E8E8E" d="M146.592,135.467c-4.848,2.598-10.828,0.967-13.289-3.625
			c-2.46-4.592-0.508-10.475,4.34-13.073l55.233-29.603c4.848-2.598,6.8-8.481,4.339-13.073c-2.461-4.591-8.441-6.222-13.289-3.624
			l-41.572,22.281c-4.848,2.598-10.828,0.967-13.288-3.625c-2.461-4.592-0.508-10.475,4.339-13.073l46.126-24.723
			c4.848-2.598,6.8-8.48,4.339-13.072c-2.462-4.591-8.442-6.222-13.29-3.624l-49.92,26.755c-4.848,2.598-10.828,0.967-13.289-3.625
			c-2.46-4.592-0.508-10.475,4.34-13.073l125.059-67.028c4.848-2.598,10.94-0.758,13.538,4.09l187.438,349.713
			c2.598,4.848,0.758,10.939-4.09,13.537l-63.583,34.078c-4.848,2.598-10.827,0.967-13.288-3.624
			c-2.462-4.592-8.441-6.223-13.289-3.625l-46.125,24.723c-4.848,2.598-10.827,0.968-13.288-3.623
			c-2.461-4.592-0.509-10.474,4.339-13.072l55.232-29.604c4.848-2.599,6.8-8.481,4.339-13.073s-8.44-6.223-13.288-3.625
			l-55.235,29.605c-4.848,2.598-10.826,0.967-13.287-3.625c-2.46-4.593-0.507-10.476,4.34-13.073l55.232-29.604
			c4.848-2.598,6.8-8.48,4.339-13.072c-2.46-4.591-8.439-6.222-13.287-3.624l-36.26,19.434c-4.849,2.598-10.828,0.967-13.289-3.626
			c-2.46-4.592-0.508-10.475,4.341-13.072l36.259-19.433c4.848-2.598,6.801-8.481,4.34-13.073
			c-2.462-4.592-8.441-6.224-13.289-3.626l-38.538,20.655c-4.848,2.598-10.827,0.967-13.288-3.625
			c-2.461-4.591-0.508-10.474,4.34-13.072l17.284-9.264c4.848-2.599,6.8-8.481,4.338-13.072c-2.461-4.591-8.441-6.222-13.289-3.624
			l-37.775,20.247c-4.848,2.598-10.828,0.967-13.289-3.626s-0.508-10.476,4.339-13.073l61.305-32.856
			c4.848-2.598,6.8-8.48,4.339-13.072c-2.462-4.592-8.441-6.223-13.29-3.625l-37.776,20.247c-4.848,2.598-10.828,0.967-13.289-3.625
			c-2.461-4.592-0.509-10.475,4.339-13.072l13.491-7.231c4.848-2.598,6.8-8.48,4.338-13.071c-2.461-4.592-8.441-6.223-13.289-3.625
			l-11.971,6.417c-4.848,2.598-10.828,0.967-13.289-3.626c-2.461-4.592-0.508-10.475,4.339-13.072l27.15-14.552
			c4.848-2.598,6.8-8.48,4.339-13.072c-2.46-4.592-8.44-6.223-13.288-3.625l-43.09,23.095c-4.848,2.598-10.828,0.967-13.289-3.625
			s-0.508-10.475,4.339-13.073l50.68-27.163c4.848-2.598,6.8-8.481,4.338-13.073c-2.461-4.592-8.441-6.223-13.289-3.625
			L146.592,135.467z"/>
	</g>
	<g display="none" clip-path="url(#SVGID_2_)">
		<path display="inline" fill="#AAAAAA" d="M196.969,172.949c-4.848,2.598-10.828,0.967-13.29-3.624
			c-2.461-4.591-0.509-10.474,4.339-13.071l55.234-29.605c4.848-2.598,6.8-8.481,4.339-13.073s-8.441-6.223-13.289-3.625
			l-41.572,22.282c-4.848,2.598-10.828,0.967-13.289-3.625c-2.46-4.592-0.508-10.475,4.34-13.073l46.126-24.722
			c4.848-2.598,6.8-8.481,4.338-13.073c-2.461-4.591-8.441-6.222-13.289-3.624l-49.92,26.756
			c-4.848,2.598-10.828,0.967-13.289-3.624c-2.461-4.592-0.508-10.475,4.339-13.073l125.058-67.029
			c4.848-2.598,10.939-0.758,13.537,4.09l187.44,349.713c2.598,4.848,0.758,10.939-4.09,13.537l-63.582,34.079
			c-4.848,2.598-10.827,0.967-13.288-3.625c-2.462-4.592-8.441-6.223-13.289-3.625l-46.127,24.723
			c-4.848,2.598-10.827,0.967-13.287-3.624c-2.461-4.592-0.509-10.475,4.339-13.072l55.232-29.604
			c4.848-2.598,6.8-8.48,4.339-13.072c-2.461-4.591-8.44-6.222-13.288-3.624l-55.233,29.603c-4.848,2.598-10.827,0.967-13.289-3.625
			c-2.461-4.591-0.509-10.474,4.339-13.072l55.235-29.605c4.848-2.598,6.8-8.48,4.338-13.072c-2.461-4.591-8.44-6.222-13.288-3.624
			l-36.261,19.435c-4.848,2.598-10.827,0.967-13.289-3.625c-2.461-4.592-0.509-10.475,4.339-13.072l36.263-19.436
			c4.848-2.598,6.8-8.48,4.338-13.072c-2.461-4.592-8.44-6.223-13.288-3.625l-38.537,20.656c-4.848,2.598-10.827,0.967-13.288-3.625
			c-2.462-4.592-0.51-10.475,4.338-13.072l17.286-9.265c4.848-2.598,6.801-8.481,4.34-13.073s-8.439-6.224-13.287-3.625
			l-37.779,20.248c-4.848,2.599-10.827,0.968-13.288-3.625c-2.461-4.592-0.509-10.475,4.339-13.072l61.306-32.859
			c4.848-2.598,6.8-8.48,4.338-13.072c-2.461-4.591-8.44-6.222-13.288-3.624l-37.777,20.247c-4.848,2.598-10.827,0.967-13.288-3.625
			c-2.461-4.591-0.508-10.474,4.339-13.072l13.49-7.229c4.848-2.599,6.8-8.481,4.339-13.073c-2.46-4.592-8.439-6.223-13.287-3.625
			l-11.973,6.418c-4.848,2.598-10.828,0.967-13.289-3.625c-2.46-4.592-0.508-10.475,4.34-13.072l27.149-14.553
			c4.848-2.598,6.801-8.48,4.34-13.072c-2.461-4.593-8.439-6.224-13.287-3.626L227.77,199.43
			c-4.848,2.598-10.828,0.967-13.289-3.625s-0.508-10.475,4.339-13.072l50.68-27.164c4.848-2.598,6.8-8.48,4.339-13.072
			s-8.441-6.223-13.289-3.625L196.969,172.949z"/>
	</g>
	<g clip-path="url(#SVGID_2_)">
		<path fill="#7A7A7A" d="M144.731,137.014c-4.848,2.598-10.94,0.758-13.538-4.09l-3.578-6.675
			c-2.598-4.848-0.758-10.94,4.09-13.538l88.421-47.392c4.848-2.598,6.688-8.69,4.09-13.538l-3.578-6.675
			c-2.598-4.848-8.69-6.688-13.538-4.09l-68.536,36.735c-4.848,2.598-10.939,0.758-13.538-4.09l-3.577-6.676
			c-2.598-4.848-0.757-10.94,4.09-13.538l75.162-40.283c4.848-2.598,6.688-8.69,4.091-13.539l-3.578-6.676
			c-2.598-4.848-8.689-6.688-13.537-4.09l-80.688,43.248c-4.848,2.598-10.94,0.758-13.538-4.09l-3.577-6.674
			c-2.598-4.848-0.758-10.94,4.09-13.538L284.015-94.058c4.848-2.598,10.939-0.758,13.537,4.09l277.117,517.031
			c2.598,4.848,0.758,10.939-4.09,13.537l-100.573,53.905c-4.848,2.598-10.939,0.758-13.538-4.09l-3.577-6.676
			c-2.599-4.848-8.69-6.688-13.538-4.09l-75.166,40.287c-4.848,2.598-10.939,0.757-13.537-4.091l-3.577-6.674
			c-2.598-4.848-0.758-10.939,4.09-13.537l88.422-47.394c4.848-2.598,6.688-8.689,4.089-13.537l-3.576-6.674
			c-2.599-4.848-8.69-6.688-13.538-4.09l-88.423,47.391c-4.848,2.598-10.939,0.757-13.537-4.091l-3.576-6.674
			c-2.598-4.848-0.758-10.94,4.09-13.539l88.42-47.392c4.848-2.599,6.688-8.69,4.089-13.538l-3.576-6.674
			c-2.599-4.848-8.69-6.688-13.538-4.089l-60.803,32.591c-4.848,2.599-10.939,0.759-13.537-4.09l-3.579-6.678
			c-2.598-4.848-0.758-10.939,4.09-13.538l60.806-32.591c4.848-2.599,6.688-8.69,4.089-13.538l-3.577-6.673
			c-2.599-4.848-8.69-6.688-13.538-4.09l-64.118,34.366c-4.848,2.598-10.939,0.758-13.537-4.09l-3.578-6.676
			c-2.598-4.848-0.758-10.939,4.09-13.538l33.186-17.786c4.848-2.599,6.688-8.69,4.09-13.538l-3.578-6.676
			c-2.598-4.848-8.689-6.688-13.537-4.09l-63.013,33.773c-4.848,2.598-10.94,0.758-13.539-4.09l-3.577-6.674
			c-2.599-4.848-0.758-10.939,4.089-13.537l97.258-52.13c4.848-2.598,6.688-8.689,4.09-13.537l-3.578-6.675
			c-2.598-4.848-8.689-6.688-13.537-4.089l-63.012,33.773c-4.848,2.599-10.94,0.759-13.538-4.089l-3.578-6.677
			c-2.598-4.848-0.758-10.939,4.09-13.538l27.663-14.826c4.848-2.599,6.688-8.69,4.09-13.538l-3.579-6.677
			c-2.598-4.848-8.689-6.688-13.538-4.09l-25.453,13.643c-4.848,2.599-10.94,0.759-13.539-4.089l-3.579-6.676
			c-2.599-4.848-0.758-10.939,4.089-13.537l47.548-25.484c4.848-2.598,6.688-8.69,4.09-13.538l-3.577-6.675
			c-2.598-4.848-8.69-6.688-13.538-4.09l-70.746,37.918c-4.848,2.598-10.939,0.758-13.538-4.091l-3.578-6.675
			c-2.598-4.848-0.757-10.94,4.09-13.538l81.795-43.839c4.848-2.598,6.688-8.69,4.09-13.538l-3.578-6.675
			c-2.598-4.847-8.69-6.688-13.538-4.089L144.731,137.014z"/>
	</g>
	<g display="none" clip-path="url(#SVGID_2_)">
		<path display="inline" fill="#D8D8D8" d="M317.454,237.336c-4.848,2.598-10.827,0.967-13.288-3.625
			c-2.462-4.592-0.51-10.475,4.338-13.072l55.234-29.605c4.848-2.598,6.8-8.48,4.338-13.071c-2.461-4.591-8.44-6.222-13.288-3.624
			l-41.571,22.281c-4.848,2.598-10.827,0.967-13.289-3.625c-2.461-4.592-0.509-10.475,4.339-13.072l46.126-24.722
			c4.848-2.598,6.801-8.481,4.34-13.073c-2.461-4.592-8.439-6.223-13.287-3.625l-49.922,26.757
			c-4.848,2.598-10.827,0.967-13.289-3.625c-2.461-4.592-0.509-10.475,4.339-13.073l125.06-67.028
			c4.848-2.598,10.939-0.758,13.537,4.09l187.438,349.712c2.598,4.848,0.758,10.939-4.09,13.538l-63.581,34.079
			c-4.848,2.599-10.827,0.968-13.289-3.624c-2.461-4.593-8.44-6.224-13.288-3.626l-46.127,24.723
			c-4.848,2.598-10.827,0.967-13.288-3.625c-2.46-4.592-0.508-10.475,4.34-13.072l55.233-29.604c4.848-2.598,6.8-8.48,4.338-13.071
			c-2.462-4.592-8.441-6.223-13.289-3.625l-55.233,29.603c-4.848,2.598-10.827,0.967-13.287-3.625
			c-2.461-4.592-0.509-10.475,4.339-13.073l55.234-29.604c4.848-2.599,6.8-8.481,4.339-13.072s-8.44-6.222-13.289-3.624
			l-36.26,19.434c-4.848,2.598-10.827,0.968-13.288-3.623c-2.461-4.592-0.509-10.474,4.339-13.072l36.259-19.436
			c4.848-2.599,6.8-8.481,4.339-13.073s-8.44-6.223-13.288-3.624l-38.536,20.654c-4.848,2.599-10.826,0.968-13.287-3.624
			s-0.508-10.475,4.34-13.072l17.284-9.265c4.848-2.598,6.8-8.48,4.339-13.072c-2.461-4.593-8.44-6.224-13.288-3.626l-37.779,20.249
			c-4.848,2.598-10.827,0.967-13.288-3.625c-2.462-4.592-0.51-10.475,4.338-13.072l61.307-32.857c4.848-2.598,6.8-8.48,4.34-13.072
			c-2.461-4.591-8.441-6.222-13.289-3.624l-37.777,20.244c-4.848,2.598-10.827,0.967-13.288-3.625s-0.507-10.474,4.341-13.072
			l13.49-7.229c4.848-2.599,6.801-8.481,4.34-13.073c-2.462-4.592-8.441-6.224-13.289-3.626l-11.975,6.418
			c-4.848,2.598-10.827,0.967-13.287-3.625c-2.461-4.592-0.509-10.475,4.339-13.072l27.152-14.554
			c4.848-2.598,6.8-8.48,4.339-13.071c-2.462-4.591-8.441-6.222-13.289-3.624l-43.092,23.097
			c-4.848,2.598-10.826,0.967-13.287-3.625s-0.508-10.475,4.34-13.073l50.68-27.163c4.848-2.599,6.8-8.481,4.339-13.074
			s-8.44-6.224-13.288-3.626L317.454,237.336z"/>
	</g>
	<g clip-path="url(#SVGID_2_)">
		<path fill="#BCBCBC" d="M189.63,92.044c-4.848,2.598-10.94,0.758-13.538-4.09l-6.057-11.3c-2.598-4.848-0.758-10.94,4.09-13.538
			L282.723,4.911c4.848-2.598,6.688-8.69,4.089-13.538l-6.057-11.298c-2.599-4.847-8.69-6.688-13.538-4.089l-84.927,45.52
			c-4.848,2.598-10.94,0.758-13.539-4.089l-6.057-11.3c-2.599-4.847-0.758-10.939,4.089-13.538l92.82-49.748
			c4.848-2.598,6.688-8.69,4.09-13.538l-6.056-11.299c-2.598-4.848-8.69-6.688-13.538-4.09l-99.394,53.272
			c-4.848,2.598-10.94,0.758-13.538-4.09l-6.056-11.299c-2.598-4.848-0.758-10.94,4.09-13.538l229.566-123.042
			c4.848-2.598,10.939-0.758,13.537,4.09l331.64,618.761c2.598,4.848,0.758,10.939-4.09,13.537l-123.059,65.957
			c-4.848,2.598-10.939,0.758-13.539-4.09l-6.058-11.3c-2.6-4.848-8.691-6.688-13.539-4.089l-92.815,49.75
			c-4.848,2.599-10.939,0.759-13.538-4.089l-6.059-11.301c-2.599-4.848-0.759-10.939,4.089-13.538l108.598-58.207
			c4.848-2.598,6.688-8.689,4.09-13.538l-6.055-11.298c-2.598-4.848-8.689-6.688-13.537-4.09l-108.598,58.207
			c-4.848,2.598-10.939,0.758-13.537-4.09l-6.058-11.303c-2.598-4.848-0.758-10.939,4.09-13.537l108.597-58.203
			c4.848-2.598,6.688-8.689,4.09-13.537l-6.058-11.302c-2.598-4.848-8.689-6.688-13.537-4.089l-75.726,40.588
			c-4.848,2.599-10.939,0.759-13.537-4.089l-6.057-11.3c-2.598-4.848-0.758-10.939,4.09-13.537l75.727-40.588
			c4.848-2.598,6.688-8.689,4.09-13.537l-6.058-11.301c-2.598-4.848-8.689-6.688-13.537-4.089l-79.671,42.702
			c-4.848,2.599-10.939,0.759-13.537-4.089l-6.057-11.3c-2.598-4.848-0.758-10.939,4.09-13.537l42.855-22.971
			c4.848-2.598,6.688-8.69,4.09-13.538l-6.055-11.299c-2.598-4.848-8.689-6.688-13.537-4.091l-78.359,41.998
			c-4.848,2.598-10.939,0.758-13.537-4.091l-6.055-11.297c-2.598-4.849-0.758-10.94,4.09-13.538l119.116-63.844
			c4.848-2.598,6.688-8.689,4.09-13.538l-6.056-11.298c-2.598-4.848-8.689-6.688-13.538-4.091l-78.357,41.995
			c-4.848,2.598-10.939,0.758-13.538-4.09l-6.055-11.298c-2.599-4.848-0.759-10.939,4.089-13.537l36.281-19.446
			c4.848-2.598,6.688-8.689,4.09-13.537l-6.057-11.301c-2.598-4.848-8.689-6.688-13.537-4.09l-33.648,18.035
			c-4.848,2.598-10.939,0.758-13.538-4.09l-6.058-11.298c-2.599-4.848-0.759-10.939,4.089-13.537l59.947-32.131
			c4.848-2.598,6.688-8.69,4.09-13.538l-6.055-11.299c-2.598-4.848-8.689-6.688-13.537-4.09l-87.561,46.93
			c-4.848,2.598-10.94,0.758-13.538-4.09l-6.055-11.297c-2.598-4.848-0.758-10.94,4.09-13.538l100.708-53.978
			c4.848-2.598,6.688-8.69,4.09-13.539l-6.055-11.3c-2.598-4.848-8.689-6.688-13.537-4.09L189.63,92.044z"/>
	</g>
</g>
<path fill="none" stroke="#FCFCFC" stroke-width="24" stroke-miterlimit="10" d="M101.461,301.47
	c-46.806,16.677-78.332,22.043-83.605,12.184c-10.639-19.89,89.558-94.218,223.792-166.018
	c134.238-71.797,251.681-113.878,262.32-93.989c5.386,10.072-17.643,34.1-59.119,64.689"/>
<path fill="none" stroke="#FF0000" stroke-width="3" stroke-miterlimit="10" d="M439.928,109.077"/>
</svg>
