<?xml version="1.0" encoding="utf-8"?>
<!-- Generator: Adobe Illustrator 16.0.0, SVG Export Plug-In . SVG Version: 6.00 Build 0)  -->
<!DOCTYPE svg PUBLIC "-//W3C//DTD SVG 1.1//EN" "http://www.w3.org/Graphics/SVG/1.1/DTD/svg11.dtd">
<svg version="1.1" id="Layer_1" xmlns="http://www.w3.org/2000/svg" xmlns:xlink="http://www.w3.org/1999/xlink" x="0px" y="0px"
	 width="283px" height="64px" viewBox="0 0 283 64" enable-background="new 0 0 283 64" xml:space="preserve">
<path fill="#FFFFFF" d="M141.04,16c-11.04,0-19,7.2-19,18s8.96,18,20,18c6.67,0,12.55-2.641,16.19-7.09l-7.65-4.42
	c-2.02,2.21-5.09,3.5-8.54,3.5c-4.79,0-8.86-2.5-10.37-6.5h28.02c0.221-1.12,0.351-2.28,0.351-3.5C160.04,23.2,152.08,16,141.04,16
	L141.04,16z M131.58,30.5c1.25-3.99,4.67-6.5,9.45-6.5c4.791,0,8.21,2.51,9.451,6.5H131.58z M248.721,16c-11.041,0-19,7.2-19,18
	s8.959,18,20,18c6.67,0,12.549-2.641,16.189-7.09l-7.65-4.42c-2.02,2.21-5.09,3.5-8.539,3.5c-4.791,0-8.861-2.5-10.371-6.5h28.021
	c0.22-1.12,0.351-2.28,0.351-3.5C267.721,23.2,259.76,16,248.721,16L248.721,16z M239.27,30.5c1.25-3.99,4.67-6.5,9.451-6.5
	c4.789,0,8.209,2.51,9.449,6.5H239.27L239.27,30.5z M200.24,34c0,6,3.92,10,10,10c4.119,0,7.21-1.87,8.8-4.92l7.681,4.43
	C223.54,48.811,217.58,52,210.24,52c-11.051,0-19-7.2-19-18s7.96-18,19-18c7.34,0,13.289,3.19,16.48,8.49l-7.681,4.43
	c-1.59-3.05-4.681-4.92-8.8-4.92C204.17,24,200.24,28,200.24,34z M282.721,5v46h-9V5H282.721z M36.95,0L73.9,64H0L36.95,0z
	 M129.33,5l-27.71,48L73.91,5H84.3l17.32,30l17.32-30H129.33z M188.24,17v9.69c-1-0.29-2.061-0.49-3.2-0.49c-5.81,0-10,4-10,10V51
	h-9V17h9v9.2C175.04,21.12,180.95,17,188.24,17z"/>
</svg>
